# xmcd CD database file
#
# Track frame offsets:
#	150
#	12527
#	24833
#	39824
#	53363
#	66738
#	81090
#	91328
#	108051
#	119663
#	133809
#	146836
#	161004
#
# Disc length: 2323 seconds
#
# Revision: 2
# Processed by: cddbd v1.5.2PL0 Copyright (c) Steve Scherf et al.
# Submitted via: CDex 1.70beta2
#
DISCID=aa09110d
DTITLE=Lonesome River Band - Window of Time
DYEAR=2002
DGENRE=Bluegrass
TTITLE0=Down the Line
TTITLE1=How I Long to Be in the Mountains
TTITLE2=Missed It By A Mile
TTITLE3=Weary Day
TTITLE4=Rounder's Spirit
TTITLE5=Stray Dogs and Alley Cats
TTITLE6=My Heart Belongs To You
TTITLE7=Tune of a Twenty Dollar Bill
TTITLE8=Give The Devil An Inch
TTITLE9=Honey I'm Ramblin' Away
TTITLE10=Don't Go Out Tonight My Darlin'
TTITLE11=You Are Everything
TTITLE12=Tomahawk
EXTD=Doobie Shea Records, 2002\n YEAR: 2002
EXTT0=
EXTT1=
EXTT2=
EXTT3=
EXTT4=
EXTT5=
EXTT6=
EXTT7=
EXTT8=
EXTT9=
EXTT10=
EXTT11=
EXTT12=
PLAYORDER=
